<?xml version="1.0" encoding="UTF-8" standalone="no"?>
<!DOCTYPE svg PUBLIC "-//W3C//DTD SVG 1.1//EN"
 "http://www.w3.org/Graphics/SVG/1.1/DTD/svg11.dtd">
<!-- Generated by graphviz version 2.46.0 (20210119.1425)
 -->
<!-- Title: dependencies Pages: 1 -->
<svg width="1550pt" height="284pt"
 viewBox="0.00 0.00 1550.00 284.00" xmlns="http://www.w3.org/2000/svg" xmlns:xlink="http://www.w3.org/1999/xlink">
<g id="graph0" class="graph" transform="scale(1 1) rotate(0) translate(4 280)">
<title>dependencies</title>
<polygon fill="white" stroke="transparent" points="-4,4 -4,-280 1546,-280 1546,4 -4,4"/>
<text text-anchor="start" x="750.01" y="-42.4" font-family="sans-serif" font-weight="bold" font-size="14.00">Legend</text>
<polygon fill="#ffffb3" stroke="transparent" points="537,-10 537,-30 557,-30 557,-10 537,-10"/>
<text text-anchor="start" x="560.63" y="-15.4" font-family="sans-serif" font-size="14.00"> &#160;Declarations</text>
<polygon fill="#8dd3c7" stroke="transparent" points="650,-10 650,-30 670,-30 670,-10 650,-10"/>
<text text-anchor="start" x="673.73" y="-15.4" font-family="sans-serif" font-size="14.00"> &#160;Module</text>
<polygon fill="#80b1d3" stroke="transparent" points="736,-10 736,-30 756,-30 756,-10 736,-10"/>
<text text-anchor="start" x="759.78" y="-15.4" font-family="sans-serif" font-size="14.00"> &#160;Bootstrap</text>
<polygon fill="#fdb462" stroke="transparent" points="833,-10 833,-30 853,-30 853,-10 833,-10"/>
<text text-anchor="start" x="856.67" y="-15.4" font-family="sans-serif" font-size="14.00"> &#160;Providers</text>
<polygon fill="#fb8072" stroke="transparent" points="929,-10 929,-30 949,-30 949,-10 929,-10"/>
<text text-anchor="start" x="952.73" y="-15.4" font-family="sans-serif" font-size="14.00"> &#160;Exports</text>
<g id="clust1" class="cluster">
<title>cluster_AppModule</title>
<polygon fill="none" stroke="black" stroke-dasharray="1,5" points="8,-70 8,-268 1534,-268 1534,-70 8,-70"/>
</g>
<g id="clust15" class="cluster">
<title>cluster_AppModule_providers</title>
<polygon fill="none" stroke="black" points="1386,-78 1386,-130 1526,-130 1526,-78 1386,-78"/>
</g>
<g id="clust12" class="cluster">
<title>cluster_AppModule_imports</title>
<polygon fill="none" stroke="black" points="1234,-78 1234,-130 1378,-130 1378,-78 1234,-78"/>
</g>
<g id="clust14" class="cluster">
<title>cluster_AppModule_bootstrap</title>
<polygon fill="none" stroke="black" points="692,-208 692,-260 816,-260 816,-208 692,-208"/>
</g>
<g id="clust2" class="cluster">
<title>cluster_AppModule_declarations</title>
<polygon fill="none" stroke="black" points="16,-78 16,-130 1226,-130 1226,-78 16,-78"/>
</g>
<!-- AppComponent -->
<g id="node1" class="node">
<title>AppComponent</title>
<polygon fill="#ffffb3" stroke="black" points="1217.94,-122 1112.06,-122 1112.06,-86 1217.94,-86 1217.94,-122"/>
<text text-anchor="middle" x="1165" y="-99.8" font-family="Times,serif" font-size="14.00">AppComponent</text>
</g>
<!-- AppModule -->
<g id="node10" class="node">
<title>AppModule</title>
<polygon fill="#8dd3c7" stroke="black" points="795.66,-187 792.66,-191 771.66,-191 768.66,-187 712.34,-187 712.34,-151 795.66,-151 795.66,-187"/>
<text text-anchor="middle" x="754" y="-164.8" font-family="Times,serif" font-size="14.00">AppModule</text>
</g>
<!-- AppComponent&#45;&gt;AppModule -->
<g id="edge1" class="edge">
<title>AppComponent&#45;&gt;AppModule</title>
<path fill="none" stroke="black" d="M1165,-122.11C1165,-141.34 1165,-169 1165,-169 1165,-169 805.67,-169 805.67,-169"/>
<polygon fill="black" stroke="black" points="805.67,-165.5 795.67,-169 805.67,-172.5 805.67,-165.5"/>
</g>
<!-- ContactComponent -->
<g id="node2" class="node">
<title>ContactComponent</title>
<polygon fill="#ffffb3" stroke="black" points="1094.38,-122 969.62,-122 969.62,-86 1094.38,-86 1094.38,-122"/>
<text text-anchor="middle" x="1032" y="-99.8" font-family="Times,serif" font-size="14.00">ContactComponent</text>
</g>
<!-- ContactComponent&#45;&gt;AppModule -->
<g id="edge2" class="edge">
<title>ContactComponent&#45;&gt;AppModule</title>
<path fill="none" stroke="black" d="M1032,-122.02C1032,-139.37 1032,-163 1032,-163 1032,-163 805.92,-163 805.92,-163"/>
<polygon fill="black" stroke="black" points="805.92,-159.5 795.92,-163 805.92,-166.5 805.92,-159.5"/>
</g>
<!-- HighlightDirective -->
<g id="node3" class="node">
<title>HighlightDirective</title>
<polygon fill="#ffffb3" stroke="black" points="951.75,-122 830.25,-122 830.25,-86 951.75,-86 951.75,-122"/>
<text text-anchor="middle" x="891" y="-99.8" font-family="Times,serif" font-size="14.00">HighlightDirective</text>
</g>
<!-- HighlightDirective&#45;&gt;AppModule -->
<g id="edge3" class="edge">
<title>HighlightDirective&#45;&gt;AppModule</title>
<path fill="none" stroke="black" d="M891,-122.24C891,-137.57 891,-157 891,-157 891,-157 805.85,-157 805.85,-157"/>
<polygon fill="black" stroke="black" points="805.85,-153.5 795.85,-157 805.85,-160.5 805.85,-153.5"/>
</g>
<!-- HomeComponent -->
<g id="node4" class="node">
<title>HomeComponent</title>
<polygon fill="#ffffb3" stroke="black" points="811.55,-122 696.45,-122 696.45,-86 811.55,-86 811.55,-122"/>
<text text-anchor="middle" x="754" y="-99.8" font-family="Times,serif" font-size="14.00">HomeComponent</text>
</g>
<!-- HomeComponent&#45;&gt;AppModule -->
<g id="edge4" class="edge">
<title>HomeComponent&#45;&gt;AppModule</title>
<path fill="none" stroke="black" d="M754,-122.11C754,-122.11 754,-140.99 754,-140.99"/>
<polygon fill="black" stroke="black" points="750.5,-140.99 754,-150.99 757.5,-140.99 750.5,-140.99"/>
</g>
<!-- MessagesComponent -->
<g id="node5" class="node">
<title>MessagesComponent</title>
<polygon fill="#ffffb3" stroke="black" points="677.75,-122 542.25,-122 542.25,-86 677.75,-86 677.75,-122"/>
<text text-anchor="middle" x="610" y="-99.8" font-family="Times,serif" font-size="14.00">MessagesComponent</text>
</g>
<!-- MessagesComponent&#45;&gt;AppModule -->
<g id="edge5" class="edge">
<title>MessagesComponent&#45;&gt;AppModule</title>
<path fill="none" stroke="black" d="M610,-122.24C610,-137.57 610,-157 610,-157 610,-157 701.96,-157 701.96,-157"/>
<polygon fill="black" stroke="black" points="701.96,-160.5 711.96,-157 701.96,-153.5 701.96,-160.5"/>
</g>
<!-- MimimiPipe -->
<g id="node6" class="node">
<title>MimimiPipe</title>
<polygon fill="#ffffb3" stroke="black" points="524.29,-122 437.71,-122 437.71,-86 524.29,-86 524.29,-122"/>
<text text-anchor="middle" x="481" y="-99.8" font-family="Times,serif" font-size="14.00">MimimiPipe</text>
</g>
<!-- MimimiPipe&#45;&gt;AppModule -->
<g id="edge6" class="edge">
<title>MimimiPipe&#45;&gt;AppModule</title>
<path fill="none" stroke="black" d="M481,-122.02C481,-139.37 481,-163 481,-163 481,-163 702.24,-163 702.24,-163"/>
<polygon fill="black" stroke="black" points="702.24,-166.5 712.24,-163 702.24,-159.5 702.24,-166.5"/>
</g>
<!-- NewComponent -->
<g id="node7" class="node">
<title>NewComponent</title>
<polygon fill="#ffffb3" stroke="black" points="419.76,-122 312.24,-122 312.24,-86 419.76,-86 419.76,-122"/>
<text text-anchor="middle" x="366" y="-99.8" font-family="Times,serif" font-size="14.00">NewComponent</text>
</g>
<!-- NewComponent&#45;&gt;AppModule -->
<g id="edge7" class="edge">
<title>NewComponent&#45;&gt;AppModule</title>
<path fill="none" stroke="black" d="M366,-122.11C366,-141.34 366,-169 366,-169 366,-169 702.11,-169 702.11,-169"/>
<polygon fill="black" stroke="black" points="702.11,-172.5 712.11,-169 702.11,-165.5 702.11,-172.5"/>
</g>
<!-- TextButtonComponent -->
<g id="node8" class="node">
<title>TextButtonComponent</title>
<polygon fill="#ffffb3" stroke="black" points="294.61,-122 149.39,-122 149.39,-86 294.61,-86 294.61,-122"/>
<text text-anchor="middle" x="222" y="-99.8" font-family="Times,serif" font-size="14.00">TextButtonComponent</text>
</g>
<!-- TextButtonComponent&#45;&gt;AppModule -->
<g id="edge8" class="edge">
<title>TextButtonComponent&#45;&gt;AppModule</title>
<path fill="none" stroke="black" d="M222,-122.28C222,-143.32 222,-175 222,-175 222,-175 702.25,-175 702.25,-175"/>
<polygon fill="black" stroke="black" points="702.25,-178.5 712.25,-175 702.25,-171.5 702.25,-178.5"/>
</g>
<!-- UserComponent -->
<g id="node9" class="node">
<title>UserComponent</title>
<polygon fill="#ffffb3" stroke="black" points="131.76,-122 24.24,-122 24.24,-86 131.76,-86 131.76,-122"/>
<text text-anchor="middle" x="78" y="-99.8" font-family="Times,serif" font-size="14.00">UserComponent</text>
</g>
<!-- UserComponent&#45;&gt;AppModule -->
<g id="edge9" class="edge">
<title>UserComponent&#45;&gt;AppModule</title>
<path fill="none" stroke="black" d="M78,-122.25C78,-145.02 78,-181 78,-181 78,-181 702.22,-181 702.22,-181"/>
<polygon fill="black" stroke="black" points="702.22,-184.5 712.22,-181 702.22,-177.5 702.22,-184.5"/>
</g>
<!-- AppComponent  -->
<g id="node12" class="node">
<title>AppComponent </title>
<polygon fill="#80b1d3" stroke="black" points="808.44,-252 699.56,-252 699.56,-216 808.44,-216 808.44,-252"/>
<text text-anchor="middle" x="754" y="-229.8" font-family="Times,serif" font-size="14.00">AppComponent </text>
</g>
<!-- AppModule&#45;&gt;AppComponent  -->
<g id="edge11" class="edge">
<title>AppModule&#45;&gt;AppComponent </title>
<path fill="none" stroke="black" stroke-dasharray="1,5" d="M754,-187.11C754,-187.11 754,-205.99 754,-205.99"/>
<polygon fill="black" stroke="black" points="750.5,-205.99 754,-215.99 757.5,-205.99 750.5,-205.99"/>
</g>
<!-- AppRoutingModule -->
<g id="node11" class="node">
<title>AppRoutingModule</title>
<polygon fill="#8dd3c7" stroke="black" points="1370.27,-122 1367.27,-126 1346.27,-126 1343.27,-122 1241.73,-122 1241.73,-86 1370.27,-86 1370.27,-122"/>
<text text-anchor="middle" x="1306" y="-99.8" font-family="Times,serif" font-size="14.00">AppRoutingModule</text>
</g>
<!-- AppRoutingModule&#45;&gt;AppModule -->
<g id="edge10" class="edge">
<title>AppRoutingModule&#45;&gt;AppModule</title>
<path fill="none" stroke="black" d="M1306,-122.28C1306,-143.32 1306,-175 1306,-175 1306,-175 805.94,-175 805.94,-175"/>
<polygon fill="black" stroke="black" points="805.94,-171.5 795.94,-175 805.94,-178.5 805.94,-171.5"/>
</g>
<!-- UsersService -->
<g id="node13" class="node">
<title>UsersService</title>
<ellipse fill="#fdb462" stroke="black" cx="1456" cy="-104" rx="61.95" ry="18"/>
<text text-anchor="middle" x="1456" y="-99.8" font-family="Times,serif" font-size="14.00">UsersService</text>
</g>
<!-- UsersService&#45;&gt;AppModule -->
<g id="edge12" class="edge">
<title>UsersService&#45;&gt;AppModule</title>
<path fill="none" stroke="black" d="M1456,-122.25C1456,-145.02 1456,-181 1456,-181 1456,-181 805.81,-181 805.81,-181"/>
<polygon fill="black" stroke="black" points="805.81,-177.5 795.81,-181 805.81,-184.5 805.81,-177.5"/>
</g>
</g>
</svg>
