<?xml version="1.0" encoding="UTF-8" standalone="no"?>
<!DOCTYPE svg PUBLIC "-//W3C//DTD SVG 1.1//EN"
 "http://www.w3.org/Graphics/SVG/1.1/DTD/svg11.dtd">
<!-- Generated by graphviz version 2.46.0 (20210119.1425)
 -->
<!-- Title: dependencies Pages: 1 -->
<svg width="1425pt" height="284pt"
 viewBox="0.00 0.00 1425.00 284.00" xmlns="http://www.w3.org/2000/svg" xmlns:xlink="http://www.w3.org/1999/xlink">
<g id="graph0" class="graph" transform="scale(1 1) rotate(0) translate(4 280)">
<title>dependencies</title>
<polygon fill="white" stroke="transparent" points="-4,4 -4,-280 1421,-280 1421,4 -4,4"/>
<text text-anchor="start" x="687.51" y="-42.4" font-family="sans-serif" font-weight="bold" font-size="14.00">Legend</text>
<polygon fill="#ffffb3" stroke="transparent" points="474.5,-10 474.5,-30 494.5,-30 494.5,-10 474.5,-10"/>
<text text-anchor="start" x="498.13" y="-15.4" font-family="sans-serif" font-size="14.00"> &#160;Declarations</text>
<polygon fill="#8dd3c7" stroke="transparent" points="587.5,-10 587.5,-30 607.5,-30 607.5,-10 587.5,-10"/>
<text text-anchor="start" x="611.23" y="-15.4" font-family="sans-serif" font-size="14.00"> &#160;Module</text>
<polygon fill="#80b1d3" stroke="transparent" points="673.5,-10 673.5,-30 693.5,-30 693.5,-10 673.5,-10"/>
<text text-anchor="start" x="697.28" y="-15.4" font-family="sans-serif" font-size="14.00"> &#160;Bootstrap</text>
<polygon fill="#fdb462" stroke="transparent" points="770.5,-10 770.5,-30 790.5,-30 790.5,-10 770.5,-10"/>
<text text-anchor="start" x="794.17" y="-15.4" font-family="sans-serif" font-size="14.00"> &#160;Providers</text>
<polygon fill="#fb8072" stroke="transparent" points="866.5,-10 866.5,-30 886.5,-30 886.5,-10 866.5,-10"/>
<text text-anchor="start" x="890.23" y="-15.4" font-family="sans-serif" font-size="14.00"> &#160;Exports</text>
<g id="clust1" class="cluster">
<title>cluster_AppModule</title>
<polygon fill="none" stroke="black" stroke-dasharray="1,5" points="8,-70 8,-268 1409,-268 1409,-70 8,-70"/>
</g>
<g id="clust11" class="cluster">
<title>cluster_AppModule_imports</title>
<polygon fill="none" stroke="black" points="1257,-78 1257,-130 1401,-130 1401,-78 1257,-78"/>
</g>
<g id="clust13" class="cluster">
<title>cluster_AppModule_bootstrap</title>
<polygon fill="none" stroke="black" points="635,-208 635,-260 759,-260 759,-208 635,-208"/>
</g>
<g id="clust14" class="cluster">
<title>cluster_AppModule_providers</title>
<polygon fill="none" stroke="black" points="1109,-78 1109,-130 1249,-130 1249,-78 1109,-78"/>
</g>
<g id="clust2" class="cluster">
<title>cluster_AppModule_declarations</title>
<polygon fill="none" stroke="black" points="16,-78 16,-130 1101,-130 1101,-78 16,-78"/>
</g>
<!-- AppComponent -->
<g id="node1" class="node">
<title>AppComponent</title>
<polygon fill="#ffffb3" stroke="black" points="1092.94,-122 987.06,-122 987.06,-86 1092.94,-86 1092.94,-122"/>
<text text-anchor="middle" x="1040" y="-99.8" font-family="Times,serif" font-size="14.00">AppComponent</text>
</g>
<!-- AppModule -->
<g id="node9" class="node">
<title>AppModule</title>
<polygon fill="#8dd3c7" stroke="black" points="738.66,-187 735.66,-191 714.66,-191 711.66,-187 655.34,-187 655.34,-151 738.66,-151 738.66,-187"/>
<text text-anchor="middle" x="697" y="-164.8" font-family="Times,serif" font-size="14.00">AppModule</text>
</g>
<!-- AppComponent&#45;&gt;AppModule -->
<g id="edge1" class="edge">
<title>AppComponent&#45;&gt;AppModule</title>
<path fill="none" stroke="black" d="M1040,-122.27C1040,-140.56 1040,-166 1040,-166 1040,-166 748.72,-166 748.72,-166"/>
<polygon fill="black" stroke="black" points="748.72,-162.5 738.72,-166 748.72,-169.5 748.72,-162.5"/>
</g>
<!-- ContactComponent -->
<g id="node2" class="node">
<title>ContactComponent</title>
<polygon fill="#ffffb3" stroke="black" points="969.38,-122 844.62,-122 844.62,-86 969.38,-86 969.38,-122"/>
<text text-anchor="middle" x="907" y="-99.8" font-family="Times,serif" font-size="14.00">ContactComponent</text>
</g>
<!-- ContactComponent&#45;&gt;AppModule -->
<g id="edge2" class="edge">
<title>ContactComponent&#45;&gt;AppModule</title>
<path fill="none" stroke="black" d="M907,-122.01C907,-138.05 907,-159 907,-159 907,-159 748.74,-159 748.74,-159"/>
<polygon fill="black" stroke="black" points="748.74,-155.5 738.74,-159 748.74,-162.5 748.74,-155.5"/>
</g>
<!-- HighlightDirective -->
<g id="node3" class="node">
<title>HighlightDirective</title>
<polygon fill="#ffffb3" stroke="black" points="826.75,-122 705.25,-122 705.25,-86 826.75,-86 826.75,-122"/>
<text text-anchor="middle" x="766" y="-99.8" font-family="Times,serif" font-size="14.00">HighlightDirective</text>
</g>
<!-- HighlightDirective&#45;&gt;AppModule -->
<g id="edge3" class="edge">
<title>HighlightDirective&#45;&gt;AppModule</title>
<path fill="none" stroke="black" d="M721.98,-122.11C721.98,-122.11 721.98,-140.99 721.98,-140.99"/>
<polygon fill="black" stroke="black" points="718.48,-140.99 721.98,-150.99 725.48,-140.99 718.48,-140.99"/>
</g>
<!-- HomeComponent -->
<g id="node4" class="node">
<title>HomeComponent</title>
<polygon fill="#ffffb3" stroke="black" points="686.55,-122 571.45,-122 571.45,-86 686.55,-86 686.55,-122"/>
<text text-anchor="middle" x="629" y="-99.8" font-family="Times,serif" font-size="14.00">HomeComponent</text>
</g>
<!-- HomeComponent&#45;&gt;AppModule -->
<g id="edge4" class="edge">
<title>HomeComponent&#45;&gt;AppModule</title>
<path fill="none" stroke="black" d="M670.97,-122.11C670.97,-122.11 670.97,-140.99 670.97,-140.99"/>
<polygon fill="black" stroke="black" points="667.47,-140.99 670.97,-150.99 674.47,-140.99 667.47,-140.99"/>
</g>
<!-- MessagesComponent -->
<g id="node5" class="node">
<title>MessagesComponent</title>
<polygon fill="#ffffb3" stroke="black" points="552.75,-122 417.25,-122 417.25,-86 552.75,-86 552.75,-122"/>
<text text-anchor="middle" x="485" y="-99.8" font-family="Times,serif" font-size="14.00">MessagesComponent</text>
</g>
<!-- MessagesComponent&#45;&gt;AppModule -->
<g id="edge5" class="edge">
<title>MessagesComponent&#45;&gt;AppModule</title>
<path fill="none" stroke="black" d="M485,-122.01C485,-138.05 485,-159 485,-159 485,-159 645.12,-159 645.12,-159"/>
<polygon fill="black" stroke="black" points="645.12,-162.5 655.12,-159 645.12,-155.5 645.12,-162.5"/>
</g>
<!-- MimimiPipe -->
<g id="node6" class="node">
<title>MimimiPipe</title>
<polygon fill="#ffffb3" stroke="black" points="399.29,-122 312.71,-122 312.71,-86 399.29,-86 399.29,-122"/>
<text text-anchor="middle" x="356" y="-99.8" font-family="Times,serif" font-size="14.00">MimimiPipe</text>
</g>
<!-- MimimiPipe&#45;&gt;AppModule -->
<g id="edge6" class="edge">
<title>MimimiPipe&#45;&gt;AppModule</title>
<path fill="none" stroke="black" d="M356,-122.27C356,-140.56 356,-166 356,-166 356,-166 645.19,-166 645.19,-166"/>
<polygon fill="black" stroke="black" points="645.19,-169.5 655.19,-166 645.19,-162.5 645.19,-169.5"/>
</g>
<!-- TextButtonComponent -->
<g id="node7" class="node">
<title>TextButtonComponent</title>
<polygon fill="#ffffb3" stroke="black" points="294.61,-122 149.39,-122 149.39,-86 294.61,-86 294.61,-122"/>
<text text-anchor="middle" x="222" y="-99.8" font-family="Times,serif" font-size="14.00">TextButtonComponent</text>
</g>
<!-- TextButtonComponent&#45;&gt;AppModule -->
<g id="edge7" class="edge">
<title>TextButtonComponent&#45;&gt;AppModule</title>
<path fill="none" stroke="black" d="M222,-122.13C222,-142.57 222,-173 222,-173 222,-173 645.26,-173 645.26,-173"/>
<polygon fill="black" stroke="black" points="645.26,-176.5 655.26,-173 645.26,-169.5 645.26,-176.5"/>
</g>
<!-- UserComponent -->
<g id="node8" class="node">
<title>UserComponent</title>
<polygon fill="#ffffb3" stroke="black" points="131.76,-122 24.24,-122 24.24,-86 131.76,-86 131.76,-122"/>
<text text-anchor="middle" x="78" y="-99.8" font-family="Times,serif" font-size="14.00">UserComponent</text>
</g>
<!-- UserComponent&#45;&gt;AppModule -->
<g id="edge8" class="edge">
<title>UserComponent&#45;&gt;AppModule</title>
<path fill="none" stroke="black" d="M78,-122.01C78,-144.49 78,-180 78,-180 78,-180 644.94,-180 644.94,-180"/>
<polygon fill="black" stroke="black" points="644.94,-183.5 654.94,-180 644.94,-176.5 644.94,-183.5"/>
</g>
<!-- AppComponent  -->
<g id="node11" class="node">
<title>AppComponent </title>
<polygon fill="#80b1d3" stroke="black" points="751.44,-252 642.56,-252 642.56,-216 751.44,-216 751.44,-252"/>
<text text-anchor="middle" x="697" y="-229.8" font-family="Times,serif" font-size="14.00">AppComponent </text>
</g>
<!-- AppModule&#45;&gt;AppComponent  -->
<g id="edge10" class="edge">
<title>AppModule&#45;&gt;AppComponent </title>
<path fill="none" stroke="black" stroke-dasharray="1,5" d="M697,-187.11C697,-187.11 697,-205.99 697,-205.99"/>
<polygon fill="black" stroke="black" points="693.5,-205.99 697,-215.99 700.5,-205.99 693.5,-205.99"/>
</g>
<!-- AppRoutingModule -->
<g id="node10" class="node">
<title>AppRoutingModule</title>
<polygon fill="#8dd3c7" stroke="black" points="1393.27,-122 1390.27,-126 1369.27,-126 1366.27,-122 1264.73,-122 1264.73,-86 1393.27,-86 1393.27,-122"/>
<text text-anchor="middle" x="1329" y="-99.8" font-family="Times,serif" font-size="14.00">AppRoutingModule</text>
</g>
<!-- AppRoutingModule&#45;&gt;AppModule -->
<g id="edge9" class="edge">
<title>AppRoutingModule&#45;&gt;AppModule</title>
<path fill="none" stroke="black" d="M1329,-122.01C1329,-144.49 1329,-180 1329,-180 1329,-180 748.96,-180 748.96,-180"/>
<polygon fill="black" stroke="black" points="748.96,-176.5 738.96,-180 748.96,-183.5 748.96,-176.5"/>
</g>
<!-- UsersService -->
<g id="node12" class="node">
<title>UsersService</title>
<ellipse fill="#fdb462" stroke="black" cx="1179" cy="-104" rx="61.95" ry="18"/>
<text text-anchor="middle" x="1179" y="-99.8" font-family="Times,serif" font-size="14.00">UsersService</text>
</g>
<!-- UsersService&#45;&gt;AppModule -->
<g id="edge11" class="edge">
<title>UsersService&#45;&gt;AppModule</title>
<path fill="none" stroke="black" d="M1179,-122.13C1179,-142.57 1179,-173 1179,-173 1179,-173 748.93,-173 748.93,-173"/>
<polygon fill="black" stroke="black" points="748.93,-169.5 738.93,-173 748.93,-176.5 748.93,-169.5"/>
</g>
</g>
</svg>
