<?xml version="1.0" encoding="UTF-8" standalone="no"?>
<!DOCTYPE svg PUBLIC "-//W3C//DTD SVG 1.1//EN"
 "http://www.w3.org/Graphics/SVG/1.1/DTD/svg11.dtd">
<!-- Generated by graphviz version 2.46.0 (20210119.1425)
 -->
<!-- Title: dependencies Pages: 1 -->
<svg width="1550pt" height="284pt"
 viewBox="0.00 0.00 1550.00 284.00" xmlns="http://www.w3.org/2000/svg" xmlns:xlink="http://www.w3.org/1999/xlink">
<g id="graph0" class="graph" transform="scale(1 1) rotate(0) translate(4 280)">
<title>dependencies</title>
<polygon fill="white" stroke="transparent" points="-4,4 -4,-280 1546,-280 1546,4 -4,4"/>
<text text-anchor="start" x="750.01" y="-42.4" font-family="sans-serif" font-weight="bold" font-size="14.00">Legend</text>
<polygon fill="#ffffb3" stroke="transparent" points="537,-10 537,-30 557,-30 557,-10 537,-10"/>
<text text-anchor="start" x="560.63" y="-15.4" font-family="sans-serif" font-size="14.00"> &#160;Declarations</text>
<polygon fill="#8dd3c7" stroke="transparent" points="650,-10 650,-30 670,-30 670,-10 650,-10"/>
<text text-anchor="start" x="673.73" y="-15.4" font-family="sans-serif" font-size="14.00"> &#160;Module</text>
<polygon fill="#80b1d3" stroke="transparent" points="736,-10 736,-30 756,-30 756,-10 736,-10"/>
<text text-anchor="start" x="759.78" y="-15.4" font-family="sans-serif" font-size="14.00"> &#160;Bootstrap</text>
<polygon fill="#fdb462" stroke="transparent" points="833,-10 833,-30 853,-30 853,-10 833,-10"/>
<text text-anchor="start" x="856.67" y="-15.4" font-family="sans-serif" font-size="14.00"> &#160;Providers</text>
<polygon fill="#fb8072" stroke="transparent" points="929,-10 929,-30 949,-30 949,-10 929,-10"/>
<text text-anchor="start" x="952.73" y="-15.4" font-family="sans-serif" font-size="14.00"> &#160;Exports</text>
<g id="clust1" class="cluster">
<title>cluster_AppModule</title>
<polygon fill="none" stroke="black" stroke-dasharray="1,5" points="8,-70 8,-268 1534,-268 1534,-70 8,-70"/>
</g>
<g id="clust2" class="cluster">
<title>cluster_AppModule_declarations</title>
<polygon fill="none" stroke="black" points="316,-78 316,-130 1526,-130 1526,-78 316,-78"/>
</g>
<g id="clust12" class="cluster">
<title>cluster_AppModule_imports</title>
<polygon fill="none" stroke="black" points="164,-78 164,-130 308,-130 308,-78 164,-78"/>
</g>
<g id="clust14" class="cluster">
<title>cluster_AppModule_bootstrap</title>
<polygon fill="none" stroke="black" points="719,-208 719,-260 843,-260 843,-208 719,-208"/>
</g>
<g id="clust15" class="cluster">
<title>cluster_AppModule_providers</title>
<polygon fill="none" stroke="black" points="16,-78 16,-130 156,-130 156,-78 16,-78"/>
</g>
<!-- AppComponent -->
<g id="node1" class="node">
<title>AppComponent</title>
<polygon fill="#ffffb3" stroke="black" points="1517.94,-122 1412.06,-122 1412.06,-86 1517.94,-86 1517.94,-122"/>
<text text-anchor="middle" x="1465" y="-99.8" font-family="Times,serif" font-size="14.00">AppComponent</text>
</g>
<!-- AppModule -->
<g id="node10" class="node">
<title>AppModule</title>
<polygon fill="#8dd3c7" stroke="black" points="822.66,-187 819.66,-191 798.66,-191 795.66,-187 739.34,-187 739.34,-151 822.66,-151 822.66,-187"/>
<text text-anchor="middle" x="781" y="-164.8" font-family="Times,serif" font-size="14.00">AppModule</text>
</g>
<!-- AppComponent&#45;&gt;AppModule -->
<g id="edge1" class="edge">
<title>AppComponent&#45;&gt;AppModule</title>
<path fill="none" stroke="black" d="M1465,-122.25C1465,-145.02 1465,-181 1465,-181 1465,-181 832.76,-181 832.76,-181"/>
<polygon fill="black" stroke="black" points="832.76,-177.5 822.76,-181 832.76,-184.5 832.76,-177.5"/>
</g>
<!-- ContactComponent -->
<g id="node2" class="node">
<title>ContactComponent</title>
<polygon fill="#ffffb3" stroke="black" points="1394.38,-122 1269.62,-122 1269.62,-86 1394.38,-86 1394.38,-122"/>
<text text-anchor="middle" x="1332" y="-99.8" font-family="Times,serif" font-size="14.00">ContactComponent</text>
</g>
<!-- ContactComponent&#45;&gt;AppModule -->
<g id="edge2" class="edge">
<title>ContactComponent&#45;&gt;AppModule</title>
<path fill="none" stroke="black" d="M1332,-122.28C1332,-143.32 1332,-175 1332,-175 1332,-175 832.87,-175 832.87,-175"/>
<polygon fill="black" stroke="black" points="832.87,-171.5 822.87,-175 832.87,-178.5 832.87,-171.5"/>
</g>
<!-- HighlightDirective -->
<g id="node3" class="node">
<title>HighlightDirective</title>
<polygon fill="#ffffb3" stroke="black" points="1251.75,-122 1130.25,-122 1130.25,-86 1251.75,-86 1251.75,-122"/>
<text text-anchor="middle" x="1191" y="-99.8" font-family="Times,serif" font-size="14.00">HighlightDirective</text>
</g>
<!-- HighlightDirective&#45;&gt;AppModule -->
<g id="edge3" class="edge">
<title>HighlightDirective&#45;&gt;AppModule</title>
<path fill="none" stroke="black" d="M1191,-122.11C1191,-141.34 1191,-169 1191,-169 1191,-169 832.95,-169 832.95,-169"/>
<polygon fill="black" stroke="black" points="832.95,-165.5 822.95,-169 832.95,-172.5 832.95,-165.5"/>
</g>
<!-- HomeComponent -->
<g id="node4" class="node">
<title>HomeComponent</title>
<polygon fill="#ffffb3" stroke="black" points="1111.55,-122 996.45,-122 996.45,-86 1111.55,-86 1111.55,-122"/>
<text text-anchor="middle" x="1054" y="-99.8" font-family="Times,serif" font-size="14.00">HomeComponent</text>
</g>
<!-- HomeComponent&#45;&gt;AppModule -->
<g id="edge4" class="edge">
<title>HomeComponent&#45;&gt;AppModule</title>
<path fill="none" stroke="black" d="M1054,-122.02C1054,-139.37 1054,-163 1054,-163 1054,-163 832.76,-163 832.76,-163"/>
<polygon fill="black" stroke="black" points="832.76,-159.5 822.76,-163 832.76,-166.5 832.76,-159.5"/>
</g>
<!-- MessagesComponent -->
<g id="node5" class="node">
<title>MessagesComponent</title>
<polygon fill="#ffffb3" stroke="black" points="977.75,-122 842.25,-122 842.25,-86 977.75,-86 977.75,-122"/>
<text text-anchor="middle" x="910" y="-99.8" font-family="Times,serif" font-size="14.00">MessagesComponent</text>
</g>
<!-- MessagesComponent&#45;&gt;AppModule -->
<g id="edge5" class="edge">
<title>MessagesComponent&#45;&gt;AppModule</title>
<path fill="none" stroke="black" d="M910,-122.24C910,-137.57 910,-157 910,-157 910,-157 832.88,-157 832.88,-157"/>
<polygon fill="black" stroke="black" points="832.88,-153.5 822.88,-157 832.88,-160.5 832.88,-153.5"/>
</g>
<!-- MimimiPipe -->
<g id="node6" class="node">
<title>MimimiPipe</title>
<polygon fill="#ffffb3" stroke="black" points="824.29,-122 737.71,-122 737.71,-86 824.29,-86 824.29,-122"/>
<text text-anchor="middle" x="781" y="-99.8" font-family="Times,serif" font-size="14.00">MimimiPipe</text>
</g>
<!-- MimimiPipe&#45;&gt;AppModule -->
<g id="edge6" class="edge">
<title>MimimiPipe&#45;&gt;AppModule</title>
<path fill="none" stroke="black" d="M781,-122.11C781,-122.11 781,-140.99 781,-140.99"/>
<polygon fill="black" stroke="black" points="777.5,-140.99 781,-150.99 784.5,-140.99 777.5,-140.99"/>
</g>
<!-- NewComponent -->
<g id="node7" class="node">
<title>NewComponent</title>
<polygon fill="#ffffb3" stroke="black" points="719.76,-122 612.24,-122 612.24,-86 719.76,-86 719.76,-122"/>
<text text-anchor="middle" x="666" y="-99.8" font-family="Times,serif" font-size="14.00">NewComponent</text>
</g>
<!-- NewComponent&#45;&gt;AppModule -->
<g id="edge7" class="edge">
<title>NewComponent&#45;&gt;AppModule</title>
<path fill="none" stroke="black" d="M666,-122.24C666,-137.57 666,-157 666,-157 666,-157 729.16,-157 729.16,-157"/>
<polygon fill="black" stroke="black" points="729.16,-160.5 739.16,-157 729.16,-153.5 729.16,-160.5"/>
</g>
<!-- TextButtonComponent -->
<g id="node8" class="node">
<title>TextButtonComponent</title>
<polygon fill="#ffffb3" stroke="black" points="594.61,-122 449.39,-122 449.39,-86 594.61,-86 594.61,-122"/>
<text text-anchor="middle" x="522" y="-99.8" font-family="Times,serif" font-size="14.00">TextButtonComponent</text>
</g>
<!-- TextButtonComponent&#45;&gt;AppModule -->
<g id="edge8" class="edge">
<title>TextButtonComponent&#45;&gt;AppModule</title>
<path fill="none" stroke="black" d="M522,-122.02C522,-139.37 522,-163 522,-163 522,-163 729.1,-163 729.1,-163"/>
<polygon fill="black" stroke="black" points="729.1,-166.5 739.1,-163 729.1,-159.5 729.1,-166.5"/>
</g>
<!-- UserComponent -->
<g id="node9" class="node">
<title>UserComponent</title>
<polygon fill="#ffffb3" stroke="black" points="431.76,-122 324.24,-122 324.24,-86 431.76,-86 431.76,-122"/>
<text text-anchor="middle" x="378" y="-99.8" font-family="Times,serif" font-size="14.00">UserComponent</text>
</g>
<!-- UserComponent&#45;&gt;AppModule -->
<g id="edge9" class="edge">
<title>UserComponent&#45;&gt;AppModule</title>
<path fill="none" stroke="black" d="M378,-122.11C378,-141.34 378,-169 378,-169 378,-169 729.01,-169 729.01,-169"/>
<polygon fill="black" stroke="black" points="729.01,-172.5 739.01,-169 729.01,-165.5 729.01,-172.5"/>
</g>
<!-- AppComponent  -->
<g id="node12" class="node">
<title>AppComponent </title>
<polygon fill="#80b1d3" stroke="black" points="835.44,-252 726.56,-252 726.56,-216 835.44,-216 835.44,-252"/>
<text text-anchor="middle" x="781" y="-229.8" font-family="Times,serif" font-size="14.00">AppComponent </text>
</g>
<!-- AppModule&#45;&gt;AppComponent  -->
<g id="edge11" class="edge">
<title>AppModule&#45;&gt;AppComponent </title>
<path fill="none" stroke="black" stroke-dasharray="1,5" d="M781,-187.11C781,-187.11 781,-205.99 781,-205.99"/>
<polygon fill="black" stroke="black" points="777.5,-205.99 781,-215.99 784.5,-205.99 777.5,-205.99"/>
</g>
<!-- AppRoutingModule -->
<g id="node11" class="node">
<title>AppRoutingModule</title>
<polygon fill="#8dd3c7" stroke="black" points="300.27,-122 297.27,-126 276.27,-126 273.27,-122 171.73,-122 171.73,-86 300.27,-86 300.27,-122"/>
<text text-anchor="middle" x="236" y="-99.8" font-family="Times,serif" font-size="14.00">AppRoutingModule</text>
</g>
<!-- AppRoutingModule&#45;&gt;AppModule -->
<g id="edge10" class="edge">
<title>AppRoutingModule&#45;&gt;AppModule</title>
<path fill="none" stroke="black" d="M236,-122.28C236,-143.32 236,-175 236,-175 236,-175 729.14,-175 729.14,-175"/>
<polygon fill="black" stroke="black" points="729.14,-178.5 739.14,-175 729.14,-171.5 729.14,-178.5"/>
</g>
<!-- UsersService -->
<g id="node13" class="node">
<title>UsersService</title>
<ellipse fill="#fdb462" stroke="black" cx="86" cy="-104" rx="61.95" ry="18"/>
<text text-anchor="middle" x="86" y="-99.8" font-family="Times,serif" font-size="14.00">UsersService</text>
</g>
<!-- UsersService&#45;&gt;AppModule -->
<g id="edge12" class="edge">
<title>UsersService&#45;&gt;AppModule</title>
<path fill="none" stroke="black" d="M86,-122.25C86,-145.02 86,-181 86,-181 86,-181 729.09,-181 729.09,-181"/>
<polygon fill="black" stroke="black" points="729.09,-184.5 739.09,-181 729.09,-177.5 729.09,-184.5"/>
</g>
</g>
</svg>
