<?xml version="1.0" encoding="UTF-8" standalone="no"?>
<!DOCTYPE svg PUBLIC "-//W3C//DTD SVG 1.1//EN"
 "http://www.w3.org/Graphics/SVG/1.1/DTD/svg11.dtd">
<!-- Generated by graphviz version 2.46.0 (20210119.1425)
 -->
<!-- Title: dependencies Pages: 1 -->
<svg width="1425pt" height="284pt"
 viewBox="0.00 0.00 1425.00 284.00" xmlns="http://www.w3.org/2000/svg" xmlns:xlink="http://www.w3.org/1999/xlink">
<g id="graph0" class="graph" transform="scale(1 1) rotate(0) translate(4 280)">
<title>dependencies</title>
<polygon fill="white" stroke="transparent" points="-4,4 -4,-280 1421,-280 1421,4 -4,4"/>
<text text-anchor="start" x="687.51" y="-42.4" font-family="sans-serif" font-weight="bold" font-size="14.00">Legend</text>
<polygon fill="#ffffb3" stroke="transparent" points="474.5,-10 474.5,-30 494.5,-30 494.5,-10 474.5,-10"/>
<text text-anchor="start" x="498.13" y="-15.4" font-family="sans-serif" font-size="14.00"> &#160;Declarations</text>
<polygon fill="#8dd3c7" stroke="transparent" points="587.5,-10 587.5,-30 607.5,-30 607.5,-10 587.5,-10"/>
<text text-anchor="start" x="611.23" y="-15.4" font-family="sans-serif" font-size="14.00"> &#160;Module</text>
<polygon fill="#80b1d3" stroke="transparent" points="673.5,-10 673.5,-30 693.5,-30 693.5,-10 673.5,-10"/>
<text text-anchor="start" x="697.28" y="-15.4" font-family="sans-serif" font-size="14.00"> &#160;Bootstrap</text>
<polygon fill="#fdb462" stroke="transparent" points="770.5,-10 770.5,-30 790.5,-30 790.5,-10 770.5,-10"/>
<text text-anchor="start" x="794.17" y="-15.4" font-family="sans-serif" font-size="14.00"> &#160;Providers</text>
<polygon fill="#fb8072" stroke="transparent" points="866.5,-10 866.5,-30 886.5,-30 886.5,-10 866.5,-10"/>
<text text-anchor="start" x="890.23" y="-15.4" font-family="sans-serif" font-size="14.00"> &#160;Exports</text>
<g id="clust1" class="cluster">
<title>cluster_AppModule</title>
<polygon fill="none" stroke="black" stroke-dasharray="1,5" points="8,-70 8,-268 1409,-268 1409,-70 8,-70"/>
</g>
<g id="clust2" class="cluster">
<title>cluster_AppModule_declarations</title>
<polygon fill="none" stroke="black" points="316,-78 316,-130 1401,-130 1401,-78 316,-78"/>
</g>
<g id="clust11" class="cluster">
<title>cluster_AppModule_imports</title>
<polygon fill="none" stroke="black" points="164,-78 164,-130 308,-130 308,-78 164,-78"/>
</g>
<g id="clust13" class="cluster">
<title>cluster_AppModule_bootstrap</title>
<polygon fill="none" stroke="black" points="658,-208 658,-260 782,-260 782,-208 658,-208"/>
</g>
<g id="clust14" class="cluster">
<title>cluster_AppModule_providers</title>
<polygon fill="none" stroke="black" points="16,-78 16,-130 156,-130 156,-78 16,-78"/>
</g>
<!-- AppComponent -->
<g id="node1" class="node">
<title>AppComponent</title>
<polygon fill="#ffffb3" stroke="black" points="1392.94,-122 1287.06,-122 1287.06,-86 1392.94,-86 1392.94,-122"/>
<text text-anchor="middle" x="1340" y="-99.8" font-family="Times,serif" font-size="14.00">AppComponent</text>
</g>
<!-- AppModule -->
<g id="node9" class="node">
<title>AppModule</title>
<polygon fill="#8dd3c7" stroke="black" points="761.66,-187 758.66,-191 737.66,-191 734.66,-187 678.34,-187 678.34,-151 761.66,-151 761.66,-187"/>
<text text-anchor="middle" x="720" y="-164.8" font-family="Times,serif" font-size="14.00">AppModule</text>
</g>
<!-- AppComponent&#45;&gt;AppModule -->
<g id="edge1" class="edge">
<title>AppComponent&#45;&gt;AppModule</title>
<path fill="none" stroke="black" d="M1340,-122.01C1340,-144.49 1340,-180 1340,-180 1340,-180 772.13,-180 772.13,-180"/>
<polygon fill="black" stroke="black" points="772.13,-176.5 762.13,-180 772.13,-183.5 772.13,-176.5"/>
</g>
<!-- ContactComponent -->
<g id="node2" class="node">
<title>ContactComponent</title>
<polygon fill="#ffffb3" stroke="black" points="1269.38,-122 1144.62,-122 1144.62,-86 1269.38,-86 1269.38,-122"/>
<text text-anchor="middle" x="1207" y="-99.8" font-family="Times,serif" font-size="14.00">ContactComponent</text>
</g>
<!-- ContactComponent&#45;&gt;AppModule -->
<g id="edge2" class="edge">
<title>ContactComponent&#45;&gt;AppModule</title>
<path fill="none" stroke="black" d="M1207,-122.13C1207,-142.57 1207,-173 1207,-173 1207,-173 771.94,-173 771.94,-173"/>
<polygon fill="black" stroke="black" points="771.94,-169.5 761.94,-173 771.94,-176.5 771.94,-169.5"/>
</g>
<!-- HighlightDirective -->
<g id="node3" class="node">
<title>HighlightDirective</title>
<polygon fill="#ffffb3" stroke="black" points="1126.75,-122 1005.25,-122 1005.25,-86 1126.75,-86 1126.75,-122"/>
<text text-anchor="middle" x="1066" y="-99.8" font-family="Times,serif" font-size="14.00">HighlightDirective</text>
</g>
<!-- HighlightDirective&#45;&gt;AppModule -->
<g id="edge3" class="edge">
<title>HighlightDirective&#45;&gt;AppModule</title>
<path fill="none" stroke="black" d="M1066,-122.27C1066,-140.56 1066,-166 1066,-166 1066,-166 771.74,-166 771.74,-166"/>
<polygon fill="black" stroke="black" points="771.74,-162.5 761.74,-166 771.74,-169.5 771.74,-162.5"/>
</g>
<!-- HomeComponent -->
<g id="node4" class="node">
<title>HomeComponent</title>
<polygon fill="#ffffb3" stroke="black" points="986.55,-122 871.45,-122 871.45,-86 986.55,-86 986.55,-122"/>
<text text-anchor="middle" x="929" y="-99.8" font-family="Times,serif" font-size="14.00">HomeComponent</text>
</g>
<!-- HomeComponent&#45;&gt;AppModule -->
<g id="edge4" class="edge">
<title>HomeComponent&#45;&gt;AppModule</title>
<path fill="none" stroke="black" d="M929,-122.01C929,-138.05 929,-159 929,-159 929,-159 771.79,-159 771.79,-159"/>
<polygon fill="black" stroke="black" points="771.79,-155.5 761.79,-159 771.79,-162.5 771.79,-155.5"/>
</g>
<!-- MessagesComponent -->
<g id="node5" class="node">
<title>MessagesComponent</title>
<polygon fill="#ffffb3" stroke="black" points="852.75,-122 717.25,-122 717.25,-86 852.75,-86 852.75,-122"/>
<text text-anchor="middle" x="785" y="-99.8" font-family="Times,serif" font-size="14.00">MessagesComponent</text>
</g>
<!-- MessagesComponent&#45;&gt;AppModule -->
<g id="edge5" class="edge">
<title>MessagesComponent&#45;&gt;AppModule</title>
<path fill="none" stroke="black" d="M739.48,-122.11C739.48,-122.11 739.48,-140.99 739.48,-140.99"/>
<polygon fill="black" stroke="black" points="735.98,-140.99 739.48,-150.99 742.98,-140.99 735.98,-140.99"/>
</g>
<!-- MimimiPipe -->
<g id="node6" class="node">
<title>MimimiPipe</title>
<polygon fill="#ffffb3" stroke="black" points="699.29,-122 612.71,-122 612.71,-86 699.29,-86 699.29,-122"/>
<text text-anchor="middle" x="656" y="-99.8" font-family="Times,serif" font-size="14.00">MimimiPipe</text>
</g>
<!-- MimimiPipe&#45;&gt;AppModule -->
<g id="edge6" class="edge">
<title>MimimiPipe&#45;&gt;AppModule</title>
<path fill="none" stroke="black" d="M688.78,-122.11C688.78,-122.11 688.78,-140.99 688.78,-140.99"/>
<polygon fill="black" stroke="black" points="685.28,-140.99 688.78,-150.99 692.28,-140.99 685.28,-140.99"/>
</g>
<!-- TextButtonComponent -->
<g id="node7" class="node">
<title>TextButtonComponent</title>
<polygon fill="#ffffb3" stroke="black" points="594.61,-122 449.39,-122 449.39,-86 594.61,-86 594.61,-122"/>
<text text-anchor="middle" x="522" y="-99.8" font-family="Times,serif" font-size="14.00">TextButtonComponent</text>
</g>
<!-- TextButtonComponent&#45;&gt;AppModule -->
<g id="edge7" class="edge">
<title>TextButtonComponent&#45;&gt;AppModule</title>
<path fill="none" stroke="black" d="M522,-122.01C522,-138.05 522,-159 522,-159 522,-159 668.01,-159 668.01,-159"/>
<polygon fill="black" stroke="black" points="668.01,-162.5 678.01,-159 668.01,-155.5 668.01,-162.5"/>
</g>
<!-- UserComponent -->
<g id="node8" class="node">
<title>UserComponent</title>
<polygon fill="#ffffb3" stroke="black" points="431.76,-122 324.24,-122 324.24,-86 431.76,-86 431.76,-122"/>
<text text-anchor="middle" x="378" y="-99.8" font-family="Times,serif" font-size="14.00">UserComponent</text>
</g>
<!-- UserComponent&#45;&gt;AppModule -->
<g id="edge8" class="edge">
<title>UserComponent&#45;&gt;AppModule</title>
<path fill="none" stroke="black" d="M378,-122.27C378,-140.56 378,-166 378,-166 378,-166 668.06,-166 668.06,-166"/>
<polygon fill="black" stroke="black" points="668.06,-169.5 678.06,-166 668.06,-162.5 668.06,-169.5"/>
</g>
<!-- AppComponent  -->
<g id="node11" class="node">
<title>AppComponent </title>
<polygon fill="#80b1d3" stroke="black" points="774.44,-252 665.56,-252 665.56,-216 774.44,-216 774.44,-252"/>
<text text-anchor="middle" x="720" y="-229.8" font-family="Times,serif" font-size="14.00">AppComponent </text>
</g>
<!-- AppModule&#45;&gt;AppComponent  -->
<g id="edge10" class="edge">
<title>AppModule&#45;&gt;AppComponent </title>
<path fill="none" stroke="black" stroke-dasharray="1,5" d="M720,-187.11C720,-187.11 720,-205.99 720,-205.99"/>
<polygon fill="black" stroke="black" points="716.5,-205.99 720,-215.99 723.5,-205.99 716.5,-205.99"/>
</g>
<!-- AppRoutingModule -->
<g id="node10" class="node">
<title>AppRoutingModule</title>
<polygon fill="#8dd3c7" stroke="black" points="300.27,-122 297.27,-126 276.27,-126 273.27,-122 171.73,-122 171.73,-86 300.27,-86 300.27,-122"/>
<text text-anchor="middle" x="236" y="-99.8" font-family="Times,serif" font-size="14.00">AppRoutingModule</text>
</g>
<!-- AppRoutingModule&#45;&gt;AppModule -->
<g id="edge9" class="edge">
<title>AppRoutingModule&#45;&gt;AppModule</title>
<path fill="none" stroke="black" d="M236,-122.13C236,-142.57 236,-173 236,-173 236,-173 668.32,-173 668.32,-173"/>
<polygon fill="black" stroke="black" points="668.32,-176.5 678.32,-173 668.32,-169.5 668.32,-176.5"/>
</g>
<!-- UsersService -->
<g id="node12" class="node">
<title>UsersService</title>
<ellipse fill="#fdb462" stroke="black" cx="86" cy="-104" rx="61.95" ry="18"/>
<text text-anchor="middle" x="86" y="-99.8" font-family="Times,serif" font-size="14.00">UsersService</text>
</g>
<!-- UsersService&#45;&gt;AppModule -->
<g id="edge11" class="edge">
<title>UsersService&#45;&gt;AppModule</title>
<path fill="none" stroke="black" d="M86,-122.01C86,-144.49 86,-180 86,-180 86,-180 667.91,-180 667.91,-180"/>
<polygon fill="black" stroke="black" points="667.91,-183.5 677.91,-180 667.91,-176.5 667.91,-183.5"/>
</g>
</g>
</svg>
